<svg width="120" height="120" fill="none" xmlns="http://www.w3.org/2000/svg"><path d="M87.028 32.99a11.466 11.466 0 0 1-.594-15.571.95.95 0 0 0-.054-1.292L75.544 5.28a.955.955 0 0 0-1.35 0L56.923 22.55a5.798 5.798 0 0 0-1.402 2.27 5.81 5.81 0 0 1-3.67 3.683 5.82 5.82 0 0 0-2.272 1.401L5.286 74.188a.955.955 0 0 0 0 1.35l10.836 10.836a.95.95 0 0 0 1.291.054 11.464 11.464 0 0 1 16.167 16.166.952.952 0 0 0 .054 1.292l10.835 10.835a.956.956 0 0 0 1.35 0l44.296-44.292a5.82 5.82 0 0 0 1.402-2.271 5.81 5.81 0 0 1 3.67-3.683 5.801 5.801 0 0 0 2.27-1.402l17.27-17.271a.956.956 0 0 0 0-1.35l-10.835-10.836a.951.951 0 0 0-1.292-.054 11.467 11.467 0 0 1-15.572-.57Z" fill="#DFDFDF"/><path fill-rule="evenodd" clip-rule="evenodd" d="M56.477 25.346a2.727 2.727 0 0 1 3.857 0l1.907 1.907a2.727 2.727 0 0 1-3.857 3.857l-1.907-1.907a2.727 2.727 0 0 1 0-3.857Zm9.535 9.535a2.727 2.727 0 0 1 3.856 0l3.814 3.814a2.727 2.727 0 1 1-3.857 3.857l-3.814-3.814a2.727 2.727 0 0 1 0-3.857Zm11.441 11.442a2.727 2.727 0 0 1 3.857 0l3.814 3.814a2.727 2.727 0 0 1-3.857 3.857l-3.814-3.814a2.727 2.727 0 0 1 0-3.857Zm11.442 11.441a2.727 2.727 0 0 1 3.857 0l1.907 1.907a2.727 2.727 0 0 1-3.857 3.857l-1.907-1.907a2.727 2.727 0 0 1 0-3.857Z" fill="#CACACA"/><path fill="#CACACA" d="m61.653 61.596 9.31-9.31 13.802 13.801-9.31 9.31zM44.612 44.525l9.309-9.309 13.851 13.852-9.309 9.309zM29.14 60l12.172-12.172 30.856 30.856-12.172 12.171z"/></svg>